<mxfile host="app.diagrams.net" modified="2023-11-29T10:11:12.525Z" agent="Mozilla/5.0 (Macintosh; Intel Mac OS X 10_15_7) AppleWebKit/537.36 (KHTML, like Gecko) Chrome/119.0.0.0 Safari/537.36" version="22.1.4" etag="xeYqjGCXfZlAn5z5cld9" type="github">
  <diagram name="Page-1" id="DL5r8cKPK0R5TMF-9Ctk">
    <mxGraphModel>
      <root>
        <mxCell id="0" />
        <mxCell id="1" parent="0" />
      </root>
    </mxGraphModel>
  </diagram>
</mxfile>
